Plot: An introvert freshman is taken under the wings of two seniors who welcome him to the real world. 

MediaInfo 0.7.61:
General
Unique ID                                : 225550639328174864424499273239860753188 (0xA9AF791837B6B2E69838B388D3623324)
Complete name                            : D:The.Perks.of.Being.a.Wallflower.2012.BDRip.720p.mkv
Format                                   : Matroska
Format version                           : Version 2
File size                                : 4.46 GiB
Duration                                 : 1h 42mn
Overall bit rate                         : 6 220 Kbps
Encoded date                             : UTC 2013-01-31 07:04:35
Writing application                      : mkvmerge v5.2.0 ('I can't explain') built on Dec 18 2011 18:12:03
Writing library                          : libebml v1.2.3 + libmatroska v1.3.0

Video
ID                                       : 1
Format                                   : AVC
Format/Info                              : Advanced Video Codec
Format profile                           : High@L4.1
Format settings, CABAC                   : Yes
Format settings, ReFrames                : 5 frames
Codec ID                                 : V_MPEG4/ISO/AVC
Duration                                 : 1h 42mn
Bit rate                                 : 4 584 Kbps
Width                                    : 1 280 pixels
Height                                   : 720 pixels
Display aspect ratio                     : 16:9
Frame rate mode                          : Constant
Frame rate                               : 23.976 fps
Color space                              : YUV
Chroma subsampling                       : 4:2:0
Bit depth                                : 8 bits
Scan type                                : Progressive
Bits/(Pixel*Frame)                       : 0.207
Stream size                              : 3.20 GiB (72%)
Title                                    : the.perks.of.being.a.wallflower.2012.720p.bluray.x264-sparks
Writing library                          : x264 core 129 r2245 bc13772
Encoding settings                        : cabac=1 / ref=5 / deblock=1:0:0 / analyse=0x3:0x133 / me=umh / subme=7 / psy=1 / psy_rd=1.00:0.00 / mixed_ref=1 / me_range=16 / chroma_me=1 / trellis=1 / 8x8dct=1 / cqm=0 / deadzone=21,11 / fast_pskip=0 / chroma_qp_offset=-2 / threads=6 / lookahead_threads=1 / sliced_threads=0 / nr=0 / decimate=1 / interlaced=0 / bluray_compat=0 / constrained_intra=0 / bframes=3 / b_pyramid=2 / b_adapt=1 / b_bias=0 / direct=1 / weightb=1 / open_gop=0 / weightp=2 / keyint=250 / keyint_min=23 / scenecut=40 / intra_refresh=0 / rc_lookahead=40 / rc=2pass / mbtree=1 / bitrate=4584 / ratetol=1.0 / qcomp=0.60 / qpmin=0 / qpmax=69 / qpstep=4 / cplxblur=20.0 / qblur=0.5 / ip_ratio=1.40 / aq=1:1.00
Language                                 : English
Default                                  : Yes
Forced                                   : Yes

Audio #1
ID                                       : 2
Format                                   : MPEG Audio
Format version                           : Version 1
Format profile                           : Layer 3
Codec ID                                 : A_MPEG/L3
Codec ID/Hint                            : MP3
Duration                                 : 1h 42mn
Bit rate mode                            : Constant
Bit rate                                 : 128 Kbps
Channel(s)                               : 2 channels
Sampling rate                            : 48.0 KHz
Compression mode                         : Lossy
Stream size                              : 94.0 MiB (2%)
Title                                    : DD 2.0 @ 128 kbps - CAMRip
Language                                 : Russian
Default                                  : Yes
Forced                                   : Yes

Audio #2
ID                                       : 3
Format                                   : DTS
Format/Info                              : Digital Theater Systems
Mode                                     : 16
Format settings, Endianness              : Big
Codec ID                                 : A_DTS
Duration                                 : 1h 42mn
Bit rate mode                            : Constant
Bit rate                                 : 1 509 Kbps
Channel(s)                               : 6 channels
Channel positions                        : Front: L C R, Side: L R, LFE
Sampling rate                            : 48.0 KHz
Bit depth                                : 24 bits
Compression mode                         : Lossy
Stream size                              : 1.08 GiB (24%)
Title                                    : DTS 5.1 @ 1536 kbps
Language                                 : English
Default                                  : No
Forced                                   : No

Text #1
ID                                       : 4
Format                                   : UTF-8
Codec ID                                 : S_TEXT/UTF8
Codec ID/Info                            : UTF-8 Plain Text
Language                                 : English
Default                                  : No
Forced                                   : No

Text #2
ID                                       : 5
Format                                   : UTF-8
Codec ID                                 : S_TEXT/UTF8
Codec ID/Info                            : UTF-8 Plain Text
Language                                 : English
Default                                  : No
Forced                                   : No

Menu
00:00:00.000                             : en:00:00:00.000
00:05:04.387                             : en:00:05:04.387
00:10:24.624                             : en:00:10:24.624
00:17:06.984                             : en:00:17:06.984
00:21:38.005                             : en:00:21:38.005
00:28:31.501                             : en:00:28:31.501
00:33:09.070                             : en:00:33:09.070
00:39:55.351                             : en:00:39:55.351
00:47:17.001                             : en:00:47:17.001
00:54:38.859                             : en:00:54:38.859
00:58:15.951                             : en:00:58:15.951
01:03:17.961                             : en:01:03:17.961
01:10:13.126                             : en:01:10:13.126
01:18:31.790                             : en:01:18:31.790
01:23:11.612                             : en:01:23:11.612
01:31:12.384                             : en:01:31:12.384

Screenshots: 
http://img10.imageshack.us/img10/8765/theperksofbeingawallflo.png 
http://img27.imageshack.us/img27/5555/theperksofbeingawallfloj.png 
http://img163.imageshack.us/img163/8765/theperksofbeingawallflo.png 
http://img835.imageshack.us/img835/7317/theperksofbeingawallflon.png